<?xml version="1.0" standalone="no"?>
<!DOCTYPE svg PUBLIC "-//W3C//DTD SVG 20010904//EN"
 "http://www.w3.org/TR/2001/REC-SVG-20010904/DTD/svg10.dtd">
<svg version="1.0" xmlns="http://www.w3.org/2000/svg"
 width="498.000000pt" height="501.000000pt" viewBox="0 0 498.000000 501.000000"
 preserveAspectRatio="xMidYMid meet">

<g transform="translate(0.000000,501.000000) scale(0.100000,-0.100000)"
fill="#000000" stroke="none">
<path d="M2480 4041 l0 -221 58 0 c266 -1 582 -147 790 -365 399 -417 431
-1065 77 -1536 -202 -270 -540 -448 -852 -449 l-63 0 0 -226 0 -225 83 6 c233
18 441 75 652 180 270 133 493 348 663 636 282 482 279 1149 -9 1626 -277 457
-761 752 -1297 789 l-102 7 0 -222z"/>
<path d="M1846 4102 c-229 -118 -437 -295 -579 -492 -80 -114 -185 -320 -226
-448 -157 -485 -78 -1023 217 -1467 65 -98 297 -346 349 -374 l23 -12 0 315 0
316 -36 56 c-84 131 -144 299 -170 475 -68 462 134 927 509 1172 l77 50 0 239
c0 206 -2 238 -15 238 -9 0 -76 -31 -149 -68z"/>
<path d="M2058 3553 l-48 -4 0 -1295 0 -1295 169 -177 c93 -97 185 -193 205
-211 l36 -35 0 737 0 737 23 1 c12 1 54 0 92 -1 304 -7 568 117 713 334 255
381 113 929 -293 1129 -135 67 -180 74 -535 79 -173 3 -336 3 -362 1z m602
-464 c114 -18 199 -88 241 -198 17 -44 20 -72 17 -131 -7 -118 -58 -199 -155
-246 -52 -26 -64 -28 -197 -28 l-141 -1 -3 295 c-1 162 0 300 3 307 6 16 142
17 235 2z"/>
</g>
</svg>
